<?xml version="1.0" encoding="UTF-8" standalone="no"?>
<!-- Generator: Adobe Illustrator 21.1.0, SVG Export Plug-In . SVG Version: 6.00 Build 0)  -->

<svg
   xmlns:dc="http://purl.org/dc/elements/1.1/"
   xmlns:cc="http://creativecommons.org/ns#"
   xmlns:rdf="http://www.w3.org/1999/02/22-rdf-syntax-ns#"
   xmlns:svg="http://www.w3.org/2000/svg"
   xmlns="http://www.w3.org/2000/svg"
   xmlns:sodipodi="http://sodipodi.sourceforge.net/DTD/sodipodi-0.dtd"
   xmlns:inkscape="http://www.inkscape.org/namespaces/inkscape"
   version="1.1"
   id="Warstwa_1"
   x="0px"
   y="0px"
   viewBox="0 0 309.77671 288.20864"
   xml:space="preserve"
   sodipodi:docname="logo.svg"
   inkscape:version="0.92.2 (5c3e80d, 2017-08-06)"
   width="309.7767"
   height="288.20865"><metadata
     id="metadata3785"><rdf:RDF><cc:Work
         rdf:about=""><dc:format>image/svg+xml</dc:format><dc:type
           rdf:resource="http://purl.org/dc/dcmitype/StillImage" /><dc:title></dc:title></cc:Work></rdf:RDF></metadata><defs
     id="defs3783" /><sodipodi:namedview
     pagecolor="#ffffff"
     bordercolor="#666666"
     borderopacity="1"
     objecttolerance="10"
     gridtolerance="10"
     guidetolerance="10"
     inkscape:pageopacity="0"
     inkscape:pageshadow="2"
     inkscape:window-width="1920"
     inkscape:window-height="1017"
     id="namedview3781"
     showgrid="false"
     inkscape:zoom="1.0072455"
     inkscape:cx="154.9267"
     inkscape:cy="169.24999"
     inkscape:window-x="-8"
     inkscape:window-y="-8"
     inkscape:window-maximized="1"
     inkscape:current-layer="Warstwa_1"
     fit-margin-left="20"
     fit-margin-right="20"
     fit-margin-top="20"
     fit-margin-bottom="20" /><style
     type="text/css"
     id="style3743">
	.st0{fill-rule:evenodd;clip-rule:evenodd;fill:#3A3A39;}
	.st1{fill:none;stroke:#3A3A39;stroke-width:1.4173;stroke-miterlimit:22.9256;}
	.st2{fill:none;stroke:#3A3A39}
    
<!--    #3A3A39;--></style><!--
<path class="st0" d="M389.4,396.8c-0.1-15.5-12.7-28.1-28.2-28.1c0,0-90.3,0-90.4,0v5.6c0,0,90.4,0,90.4,0c12.2,0.2,22,10.2,22,22.4
	l0,0.1L389.4,396.8z"/>
--><!--
<path class="st0" d="M281.1,425.4v-6.2c0.1,0,80.2,0,80.3,0c15.5,0.2,28,12.8,28,28.3c0,15.6-12.6,28.3-28.2,28.3c0,0-67.5,0-67.5,0
	v-5.6c0,0,67.5,0,67.6,0c12.2-0.2,22-10.2,22-22.4c0-12.2-9.7-22.1-21.8-22.4C361.3,425.4,281.2,425.4,281.1,425.4z"/>
<path class="st0" d="M296.1,419v6.2c-0.1,0-62.2,0-62.3,0c-15.5-0.2-28-12.8-28-28.3c0-15.6,12.6-28.3,28.2-28.3c0,0,55.2,0,55.2,0
	v5.6c0,0-55.3,0-55.3,0c-12.2,0.2-22,10.2-22,22.4c0,12.2,9.7,22.1,21.8,22.4C233.9,419,296,419,296.1,419z"/>
<path class="st0" d="M205.8,447.6c0.1,15.5,12.7,28.1,28.2,28.1c0,0,74.6,0,74.7,0v-5.6c0,0-74.7,0-74.7,0
	c-12.2-0.2-22-10.2-22-22.4l0-0.1L205.8,447.6z"/>
--><!-- ksztaltS--><path
     id="ksztaltS"
     class="st1"
     d="m 218.67671,117.10865 c -0.1,0 -42.1,0 -65.3,0 v -0.1 c -0.1,0 -62.2,0 -62.3,0 -12.1,-0.3 -21.8,-10.2 -21.8,-22.4 0,-12.2 9.8,-22.1 22,-22.4 0,0 52.6,0 55.2,0 26.4,0 72,0 72.1,0 12.2,0.2 22,10.2 22,22.4 v 0.1 h 6.2 c -0.1,-15.5 -12.7,-28.1 -28.2,-28.1 0,0 -90.3,0 -90.4,0 v 0 c -16.1,0 -36.7,0 -36.8,0 -15.6,0 -28.2,12.7 -28.2,28.3 0,15.5 12.5,28.1 28,28.3 0.1,0 28.9,0 47.3,0 v 0.1 c 0.1,0 80.2,0 80.3,0 12.1,0.3 21.8,10.2 21.8,22.4 0,12.2 -9.8,22.1 -22,22.4 0,0 -32.7,0 -52.6,0 v 0 c 0,0 -74.7,0 -74.7,0 -12.2,-0.2 -22,-10.2 -22,-22.4 v -0.1 h -6.2 c 0.1,15.5 12.7,28.1 28.2,28.1 0,0 37.9,0 59.7,0 v 0 c 0,0 67.5,0 67.5,0 15.6,0 28.2,-12.7 28.2,-28.3 0,-15.5 -12.5,-28.1 -28,-28.3 z"
     inkscape:connector-curvature="0"
     style="fill:none;stroke:#3a3a39;stroke-width:1.41729999;stroke-miterlimit:22.92560005" /><!--
<path class="st0" d="M277.2,416.8h-6.2c0-0.1,0-66,0-66.1c0.1-15.5,12.8-28,28.3-28c15.5,0,28.1,12.5,28.3,28c0,0.1,0,15.6,0,15.7
	h-5.6v0c0-0.1,0-15.6,0-15.7c-0.1-12.1-10.2-21.8-22.4-21.8c-12.2,0-22.1,9.7-22.4,21.8C277.2,350.8,277.2,416.7,277.2,416.8z"/>
--><path
     class="st1"
     d="m 134.47671,114.80865 h -6.2 c 0,-0.1 0,-66 0,-66.1 0.1,-15.5 12.8,-28 28.3,-28 15.5,0 28.1,12.5 28.3,28 0,0.1 0,15.6 0,15.7 h -5.6 v 0 c 0,-0.1 0,-15.6 0,-15.7 -0.1,-12.1 -10.2,-21.8 -22.4,-21.8 -12.2,0 -22.1,9.7 -22.4,21.8 0,0.1 0,66 0,66.1 z"
     id="path3746"
     inkscape:connector-curvature="0"
     style="fill:none;stroke:#3a3a39;stroke-width:1.41729999;stroke-miterlimit:22.92560005" /><!--
<path class="st0" d="M277.2,427.6h-6.2c0,0.1,0,63.5,0,63.6c0.1,15.5,12.8,28,28.3,28c15.5,0,28.1-12.5,28.3-28c0-0.1,0-13.1,0-13.1
	h-5.6v0c0,0,0,13.1,0,13.1c-0.1,12.1-10.2,21.8-22.4,21.8c-12.2,0-22.1-9.7-22.4-21.8C277.2,491.1,277.2,427.7,277.2,427.6z"/>
--><path
     class="st1"
     d="m 134.47671,125.60865 h -6.2 c 0,0.1 0,63.5 0,63.6 0.1,15.5 12.8,28 28.3,28 15.5,0 28.1,-12.5 28.3,-28 0,-0.1 0,-13.1 0,-13.1 h -5.6 v 0 c 0,0 0,13.1 0,13.1 -0.1,12.1 -10.2,21.8 -22.4,21.8 -12.2,0 -22.1,-9.7 -22.4,-21.8 0,-0.1 0,-63.5 0,-63.6 z"
     id="path3748"
     inkscape:connector-curvature="0"
     style="fill:none;stroke:#3a3a39;stroke-width:1.41729999;stroke-miterlimit:22.92560005" /><!--<rect x="321.9" y="452.1" class="st0" width="5.6" height="15.7"/>--><rect
     x="179.1767"
     y="150.10866"
     class="st1"
     width="5.5999999"
     height="15.7"
     id="rect3750"
     style="fill:none;stroke:#3a3a39;stroke-width:1.41729999;stroke-miterlimit:22.92560005" /><!--<rect x="321.9" y="376.6" class="st0" width="5.6" height="15.9"/>--><rect
     x="179.1767"
     y="74.608658"
     class="st1"
     width="5.5999999"
     height="15.9"
     id="rect3752"
     style="fill:none;stroke:#3a3a39;stroke-width:1.41729999;stroke-miterlimit:22.92560005" /><g
     id="g3778"
     transform="translate(-142.72329,-301.99135)"><path
       class="st2"
       d="m 178,549.7 c 2.2,1 3.9,2.2 5.1,3.8 1.1,1.6 1.7,3.4 1.7,5.6 0,3.2 -1,5.7 -3,7.6 -2,1.9 -4.7,2.9 -8,2.9 -2.7,0 -5,-0.7 -6.8,-2.1 -1.8,-1.4 -3.1,-3.3 -3.7,-5.9 l 3.7,-1.8 c 0.5,2.1 1.3,3.7 2.5,4.7 1.1,1.1 2.6,1.6 4.3,1.6 2,0 3.7,-0.6 5,-1.8 1.3,-1.2 1.9,-2.7 1.9,-4.6 0,-1.5 -0.4,-2.9 -1.3,-4 -0.9,-1.1 -2.2,-2.1 -4,-2.9 l -4.2,-1.8 c -2.3,-1 -4,-2.2 -5.1,-3.7 -1.1,-1.5 -1.7,-3.3 -1.7,-5.4 0,-2.4 0.9,-4.5 2.7,-6 1.8,-1.6 4.1,-2.4 6.9,-2.4 2.1,0 3.8,0.4 5.4,1.3 1.5,0.9 2.7,2.2 3.5,3.9 l -3.4,2.2 c -0.8,-1.3 -1.6,-2.3 -2.6,-3 -1,-0.6 -2,-1 -3.2,-1 -1.5,0 -2.8,0.5 -3.8,1.4 -1,0.9 -1.5,2.1 -1.5,3.6 0,1.2 0.4,2.3 1.1,3.2 0.8,0.9 1.9,1.7 3.5,2.4 z"
       id="path3754"
       inkscape:connector-curvature="0"
       style="fill:none;stroke:#3a3a39" /><path
       class="st2"
       d="m 188.1,558.1 c 0,-1.6 0.3,-3.1 0.9,-4.5 0.6,-1.4 1.4,-2.6 2.5,-3.7 1.1,-1.1 2.4,-1.9 3.8,-2.5 1.4,-0.6 2.9,-0.9 4.5,-0.9 1.6,0 3,0.3 4.4,0.9 1.4,0.6 2.7,1.4 3.8,2.5 1.1,1.1 2,2.3 2.5,3.7 0.5,1.4 0.9,2.9 0.9,4.4 0,1.5 -0.3,3 -0.9,4.4 -0.6,1.4 -1.4,2.6 -2.5,3.7 -1.1,1.1 -2.4,2 -3.8,2.6 -1.4,0.6 -2.9,0.9 -4.4,0.9 -1.6,0 -3.1,-0.3 -4.5,-0.9 -1.4,-0.6 -2.7,-1.4 -3.8,-2.5 -1.1,-1.1 -2,-2.4 -2.5,-3.8 -0.7,-1.3 -0.9,-2.7 -0.9,-4.3 z m 3.8,0 c 0,2.3 0.8,4.2 2.3,5.8 1.5,1.6 3.4,2.4 5.5,2.4 2.1,0 4,-0.8 5.5,-2.4 1.5,-1.6 2.3,-3.5 2.3,-5.8 0,-2.3 -0.8,-4.2 -2.3,-5.8 -1.5,-1.6 -3.3,-2.4 -5.5,-2.4 -2.2,0 -4,0.8 -5.5,2.4 -1.5,1.6 -2.3,3.5 -2.3,5.8 z"
       id="path3756"
       inkscape:connector-curvature="0"
       style="fill:none;stroke:#3a3a39" /><path
       class="st2"
       d="M 218.1,568.7 V 550.3 H 214 v -3 h 4.1 v -6.2 c 0,-3.6 0.4,-6 1.3,-7.2 0.9,-1.3 2.5,-1.9 4.8,-1.9 0.6,0 1.1,0 1.7,0.1 0.6,0.1 1,0.2 1.5,0.4 v 3.8 c -0.5,-0.3 -0.9,-0.5 -1.4,-0.6 -0.5,-0.1 -1,-0.2 -1.5,-0.2 -1.1,0 -1.8,0.3 -2.2,1 -0.4,0.7 -0.6,2.4 -0.6,5.1 v 5.7 h 5.7 v 3 h -5.6 v 18.4 z"
       id="path3758"
       inkscape:connector-curvature="0"
       style="fill:none;stroke:#3a3a39" /><path
       class="st2"
       d="m 231.5,550.3 h -3.9 v -3 h 3.9 v -8.6 h 3.8 v 8.6 h 3.9 v 3 h -3.9 v 18.4 h -3.8 z"
       id="path3760"
       inkscape:connector-curvature="0"
       style="fill:none;stroke:#3a3a39" /><path
       class="st2"
       d="m 285.8,542.6 c -1.6,-1.8 -3.4,-3.1 -5.3,-4 -1.9,-0.9 -3.9,-1.3 -6.2,-1.3 -1.8,0 -3.6,0.4 -5.3,1.1 -1.7,0.7 -3.2,1.8 -4.5,3.1 -1.3,1.4 -2.3,2.9 -3,4.6 -0.7,1.7 -1,3.5 -1,5.6 0,1.6 0.2,3.1 0.6,4.4 0.4,1.3 1,2.6 1.8,3.7 1.4,2 3.1,3.5 5.1,4.5 2,1 4.2,1.6 6.5,1.6 2.2,0 4.2,-0.5 6.1,-1.4 1.9,-0.9 3.6,-2.3 5.1,-4.1 v 5.4 c -1.7,1.2 -3.5,2.2 -5.5,2.8 -2,0.6 -4,0.9 -6.1,0.9 -1.8,0 -3.6,-0.3 -5.3,-0.8 -1.7,-0.5 -3.3,-1.3 -4.8,-2.4 -2.5,-1.7 -4.4,-3.9 -5.7,-6.4 -1.3,-2.5 -2,-5.3 -2,-8.3 0,-2.6 0.4,-5 1.3,-7.2 0.9,-2.2 2.2,-4.1 4,-5.9 1.8,-1.7 3.7,-2.9 5.8,-3.8 2.1,-0.9 4.4,-1.3 7,-1.3 2,0 3.9,0.3 5.8,0.9 1.9,0.6 3.7,1.5 5.5,2.8 v 5.5 z"
       id="path3762"
       inkscape:connector-curvature="0"
       style="fill:none;stroke:#3a3a39" /><path
       class="st2"
       d="m 292.4,568.7 v -21.4 h 3.3 v 4.5 c 1,-1.9 2,-3.2 3.1,-4 1.1,-0.8 2.5,-1.2 4.1,-1.2 0.4,0 0.9,0 1.3,0.1 0.4,0.1 0.8,0.2 1.2,0.3 l -1.2,3.3 c -0.4,-0.1 -0.8,-0.2 -1.2,-0.3 -0.4,-0.1 -0.7,-0.1 -1.1,-0.1 -1.9,0 -3.4,0.7 -4.4,2.1 -1,1.4 -1.5,3.5 -1.5,6.3 v 10.5 h -3.6 z"
       id="path3764"
       inkscape:connector-curvature="0"
       style="fill:none;stroke:#3a3a39" /><path
       class="st2"
       d="m 328.4,558.6 h -17 v 0.3 c 0,2.3 0.7,4.2 2,5.6 1.3,1.4 3,2.1 5.1,2.1 1.4,0 2.7,-0.4 3.9,-1.2 1.2,-0.8 2.2,-1.9 3.1,-3.5 l 2.8,1.9 c -1.1,1.9 -2.5,3.4 -4.1,4.4 -1.7,1 -3.6,1.5 -5.8,1.5 -3.3,0 -5.9,-1.1 -7.9,-3.2 -2,-2.2 -3,-5 -3,-8.5 0,-3.4 1,-6.1 3,-8.3 2,-2.1 4.6,-3.2 7.7,-3.2 3.2,0 5.7,1 7.5,3 1.9,2 2.8,4.8 2.8,8.3 v 0.8 z m -4,-3 c -0.1,-1.9 -0.8,-3.3 -1.9,-4.4 -1.1,-1.1 -2.7,-1.5 -4.7,-1.5 -1.8,0 -3.3,0.5 -4.5,1.6 -1.2,1.1 -1.9,2.5 -2.1,4.3 z"
       id="path3766"
       inkscape:connector-curvature="0"
       style="fill:none;stroke:#3a3a39" /><path
       class="st2"
       d="m 353.9,547.3 v 21.4 h -3.6 v -3.9 c -0.9,1.6 -2,2.8 -3.3,3.6 -1.3,0.8 -2.8,1.2 -4.5,1.2 -3.1,0 -5.6,-1.1 -7.4,-3.2 -1.8,-2.1 -2.8,-4.9 -2.8,-8.4 0,-3.5 0.9,-6.3 2.7,-8.4 1.8,-2.1 4.3,-3.1 7.3,-3.1 1.8,0 3.4,0.4 4.7,1.2 1.3,0.8 2.4,2 3.2,3.6 v -4 z m -3.6,10.9 c 0,-2.4 -0.7,-4.4 -2,-5.8 -1.3,-1.5 -3,-2.2 -5.2,-2.2 -2.2,0 -3.9,0.7 -5.2,2 -1.2,1.4 -1.9,3.3 -1.9,5.7 0,2.6 0.6,4.6 1.9,6 1.2,1.4 3,2.1 5.3,2.1 2.2,0 3.9,-0.7 5.1,-2.1 1.4,-1.3 2,-3.2 2,-5.7 z"
       id="path3768"
       inkscape:connector-curvature="0"
       style="fill:none;stroke:#3a3a39" /><path
       class="st2"
       d="m 361.8,550.3 h -3.9 v -3 h 3.9 v -8.6 h 3.8 v 8.6 h 3.9 v 3 h -3.9 v 18.4 h -3.8 z"
       id="path3770"
       inkscape:connector-curvature="0"
       style="fill:none;stroke:#3a3a39" /><path
       class="st2"
       d="m 372.9,537 c 0,-0.7 0.3,-1.4 0.8,-1.9 0.5,-0.5 1.2,-0.8 1.9,-0.8 0.7,0 1.4,0.3 1.9,0.8 0.5,0.5 0.8,1.2 0.8,1.9 0,0.7 -0.3,1.4 -0.8,1.9 -0.5,0.5 -1.1,0.8 -1.9,0.8 -0.8,0 -1.4,-0.3 -1.9,-0.8 -0.5,-0.5 -0.8,-1.2 -0.8,-1.9 z m 0.9,31.7 v -21.4 h 3.7 v 21.4 z"
       id="path3772"
       inkscape:connector-curvature="0"
       style="fill:none;stroke:#3a3a39" /><path
       class="st2"
       d="m 383.5,558.1 c 0,-1.6 0.3,-3.1 0.9,-4.5 0.6,-1.4 1.4,-2.6 2.5,-3.7 1.1,-1.1 2.4,-1.9 3.8,-2.5 1.4,-0.6 2.9,-0.9 4.5,-0.9 1.6,0 3,0.3 4.4,0.9 1.4,0.6 2.7,1.4 3.8,2.5 1.1,1.1 2,2.3 2.5,3.7 0.5,1.4 0.9,2.9 0.9,4.4 0,1.5 -0.3,3 -0.9,4.4 -0.6,1.4 -1.4,2.6 -2.5,3.7 -1.1,1.1 -2.4,2 -3.8,2.6 -1.4,0.6 -2.9,0.9 -4.4,0.9 -1.6,0 -3.1,-0.3 -4.5,-0.9 -1.4,-0.6 -2.7,-1.4 -3.8,-2.5 -1.1,-1.1 -2,-2.4 -2.5,-3.8 -0.6,-1.3 -0.9,-2.7 -0.9,-4.3 z m 3.9,0 c 0,2.3 0.8,4.2 2.3,5.8 1.5,1.6 3.4,2.4 5.5,2.4 2.1,0 4,-0.8 5.5,-2.4 1.5,-1.6 2.3,-3.5 2.3,-5.8 0,-2.3 -0.8,-4.2 -2.3,-5.8 -1.5,-1.6 -3.3,-2.4 -5.5,-2.4 -2.2,0 -4,0.8 -5.5,2.4 -1.5,1.6 -2.3,3.5 -2.3,5.8 z"
       id="path3774"
       inkscape:connector-curvature="0"
       style="fill:none;stroke:#3a3a39" /><path
       class="st2"
       d="m 412.6,568.7 v -21.4 h 3.6 v 3.3 c 0.9,-1.4 2,-2.4 3.3,-3.1 1.3,-0.7 2.8,-1 4.5,-1 2.5,0 4.5,0.7 5.9,2 1.4,1.3 2.1,3.2 2.1,5.6 v 14.6 h -3.8 v -12.6 c 0,-2.2 -0.5,-3.8 -1.4,-4.8 -0.9,-1.1 -2.3,-1.6 -4.2,-1.6 -1.1,0 -2.1,0.2 -3,0.6 -0.9,0.4 -1.6,1 -2.2,1.7 -0.5,0.6 -0.8,1.2 -1,1.9 -0.2,0.7 -0.3,2 -0.3,3.8 v 11.1 h -3.5 z"
       id="path3776"
       inkscape:connector-curvature="0"
       style="fill:none;stroke:#3a3a39" /></g></svg>